<?xml version="1.0" standalone="no"?>
<!DOCTYPE svg PUBLIC "-//W3C//DTD SVG 20010904//EN"
 "http://www.w3.org/TR/2001/REC-SVG-20010904/DTD/svg10.dtd">
<svg version="1.0" xmlns="http://www.w3.org/2000/svg"
 width="25.000000pt" height="25.000000pt" viewBox="0 0 50.000000 50.000000"
 preserveAspectRatio="xMidYMid meet">

<g transform="translate(0.000000,50.000000) scale(0.100000,-0.100000)"
fill="#000000" stroke="none">
<path d="M110 416 l0 -65 -42 -3 -43 -3 0 -115 0 -115 43 -3 42 -3 0 -45 0
-44 140 0 140 0 0 44 0 45 43 3 42 3 0 115 0 115 -42 3 -43 3 0 65 0 64 -140
0 -140 0 0 -64z m260 -11 l0 -55 -120 0 -120 0 0 55 0 55 120 0 120 0 0 -55z
m56 -116 c10 -17 -13 -36 -27 -22 -12 12 -4 33 11 33 5 0 12 -5 16 -11z m-56
-169 l0 -80 -120 0 -120 0 0 80 0 80 120 0 120 0 0 -80z"/>
<path d="M160 160 c0 -6 37 -10 90 -10 53 0 90 4 90 10 0 6 -37 10 -90 10 -53
0 -90 -4 -90 -10z"/>
<path d="M160 120 c0 -6 30 -10 70 -10 40 0 70 4 70 10 0 6 -30 10 -70 10 -40
0 -70 -4 -70 -10z"/>
<path d="M160 80 c0 -6 37 -10 90 -10 53 0 90 4 90 10 0 6 -37 10 -90 10 -53
0 -90 -4 -90 -10z"/>
</g>
</svg>
